<svg width="99" height="19" viewBox="0 0 99 19" fill="none" xmlns="http://www.w3.org/2000/svg">
<path d="M12.0365 14.285L8.132 10.3995L9.5665 8.965L13.452 12.8505L12.0365 14.285ZM7.1155 14.285C5.7475 14.285 4.57583 13.9873 3.6005 13.392C2.62517 12.7903 1.87467 11.9543 1.349 10.884C0.829667 9.81367 0.57 8.57233 0.57 7.16C0.57 5.74767 0.829667 4.50633 1.349 3.436C1.87467 2.36567 2.62517 1.53283 3.6005 0.937499C4.57583 0.335833 5.7475 0.0349997 7.1155 0.0349997C8.4835 0.0349997 9.65517 0.335833 10.6305 0.937499C11.6122 1.53283 12.3627 2.36567 12.882 3.436C13.4077 4.50633 13.6705 5.74767 13.6705 7.16C13.6705 8.57233 13.4077 9.81367 12.882 10.884C12.3627 11.9543 11.6122 12.7903 10.6305 13.392C9.65517 13.9873 8.4835 14.285 7.1155 14.285ZM7.1155 12.1285C8.03383 12.1348 8.797 11.9322 9.405 11.5205C10.0193 11.1088 10.4785 10.5293 10.7825 9.782C11.0928 9.03467 11.248 8.16067 11.248 7.16C11.248 6.15933 11.0928 5.29167 10.7825 4.557C10.4785 3.816 10.0193 3.23967 9.405 2.828C8.797 2.41633 8.03383 2.20417 7.1155 2.1915C6.19717 2.18517 5.434 2.38783 4.826 2.7995C4.218 3.21117 3.75883 3.79067 3.4485 4.538C3.1445 5.28533 2.9925 6.15933 2.9925 7.16C2.9925 8.16067 3.1445 9.0315 3.4485 9.7725C3.7525 10.5072 4.2085 11.0803 4.8165 11.492C5.43083 11.9037 6.19717 12.1158 7.1155 12.1285ZM19.9029 14.285C18.8769 14.285 17.9808 14.0538 17.2144 13.5915C16.4481 13.1292 15.8528 12.4927 15.4284 11.682C15.0104 10.865 14.8014 9.92767 14.8014 8.87C14.8014 7.79333 15.0168 6.84967 15.4474 6.039C15.8781 5.22833 16.4766 4.595 17.2429 4.139C18.0093 3.683 18.8959 3.455 19.9029 3.455C20.9353 3.455 21.8346 3.68617 22.6009 4.1485C23.3673 4.61083 23.9626 5.2505 24.3869 6.0675C24.8113 6.87817 25.0234 7.81233 25.0234 8.87C25.0234 9.934 24.8081 10.8745 24.3774 11.6915C23.9531 12.5022 23.3578 13.1387 22.5914 13.601C21.8251 14.057 20.9289 14.285 19.9029 14.285ZM19.9029 12.138C20.8149 12.138 21.4926 11.834 21.9359 11.226C22.3793 10.618 22.6009 9.83267 22.6009 8.87C22.6009 7.87567 22.3761 7.084 21.9264 6.495C21.4768 5.89967 20.8023 5.602 19.9029 5.602C19.2886 5.602 18.7819 5.74133 18.3829 6.02C17.9903 6.29233 17.6989 6.6755 17.5089 7.1695C17.3189 7.65717 17.2239 8.224 17.2239 8.87C17.2239 9.86433 17.4488 10.6592 17.8984 11.2545C18.3544 11.8435 19.0226 12.138 19.9029 12.138ZM26.9266 14V3.74H28.9501V6.2385L28.7031 5.9155C28.8297 5.5735 28.9976 5.26317 29.2066 4.9845C29.4219 4.6995 29.6784 4.46517 29.9761 4.2815C30.2294 4.1105 30.5081 3.9775 30.8121 3.8825C31.1224 3.78117 31.4391 3.721 31.7621 3.702C32.0851 3.67667 32.3986 3.68933 32.7026 3.74V5.8775C32.3986 5.78883 32.0471 5.76033 31.6481 5.792C31.2554 5.82367 30.9007 5.9345 30.5841 6.1245C30.2674 6.2955 30.0077 6.514 29.8051 6.78C29.6087 7.046 29.4631 7.35 29.3681 7.692C29.2731 8.02767 29.2256 8.39183 29.2256 8.7845V14H26.9266ZM38.2673 18.845C37.6973 18.845 37.1495 18.7563 36.6238 18.579C36.1045 18.4017 35.6358 18.1452 35.2178 17.8095C34.7998 17.4802 34.4578 17.0812 34.1918 16.6125L36.3008 15.5675C36.4972 15.9412 36.7727 16.2167 37.1273 16.394C37.4883 16.5777 37.8715 16.6695 38.2768 16.6695C38.7518 16.6695 39.1762 16.584 39.5498 16.413C39.9235 16.2483 40.2117 16.0013 40.4143 15.672C40.6233 15.349 40.7215 14.9437 40.7088 14.456V11.5395H40.9938V3.74H42.9983V14.494C42.9983 14.7537 42.9857 15.0007 42.9603 15.235C42.9413 15.4757 42.9065 15.71 42.8558 15.938C42.7038 16.603 42.4125 17.1477 41.9818 17.572C41.5512 18.0027 41.016 18.3225 40.3763 18.5315C39.743 18.7405 39.04 18.845 38.2673 18.845ZM38.0678 14.285C37.1242 14.285 36.3008 14.0475 35.5978 13.5725C34.8948 13.0975 34.3502 12.4515 33.9638 11.6345C33.5775 10.8175 33.3843 9.896 33.3843 8.87C33.3843 7.83133 33.5775 6.90667 33.9638 6.096C34.3565 5.279 34.9107 4.63617 35.6263 4.1675C36.342 3.6925 37.1843 3.455 38.1533 3.455C39.1287 3.455 39.9457 3.6925 40.6043 4.1675C41.2693 4.63617 41.7728 5.279 42.1148 6.096C42.4568 6.913 42.6278 7.83767 42.6278 8.87C42.6278 9.88967 42.4568 10.8112 42.1148 11.6345C41.7728 12.4515 41.263 13.0975 40.5853 13.5725C39.9077 14.0475 39.0685 14.285 38.0678 14.285ZM38.4193 12.233C39.0337 12.233 39.5277 12.0937 39.9013 11.815C40.2813 11.53 40.5568 11.1342 40.7278 10.6275C40.9052 10.1208 40.9938 9.535 40.9938 8.87C40.9938 8.19867 40.9052 7.61283 40.7278 7.1125C40.5568 6.60583 40.2877 6.21317 39.9203 5.9345C39.553 5.6495 39.078 5.507 38.4953 5.507C37.881 5.507 37.3743 5.659 36.9753 5.963C36.5763 6.26067 36.2818 6.666 36.0918 7.179C35.9018 7.68567 35.8068 8.24933 35.8068 8.87C35.8068 9.497 35.8987 10.067 36.0823 10.58C36.2723 11.0867 36.5605 11.4888 36.9468 11.7865C37.3332 12.0842 37.824 12.233 38.4193 12.233ZM48.3413 14.285C47.6003 14.285 46.9733 14.1457 46.4603 13.867C45.9473 13.582 45.5578 13.2052 45.2918 12.7365C45.0322 12.2678 44.9023 11.7517 44.9023 11.188C44.9023 10.694 44.9847 10.2507 45.1493 9.858C45.314 9.459 45.5673 9.117 45.9093 8.832C46.2513 8.54067 46.6947 8.30317 47.2393 8.1195C47.651 7.9865 48.1323 7.86617 48.6833 7.7585C49.2407 7.65083 49.8423 7.55267 50.4883 7.464C51.1407 7.369 51.8215 7.26767 52.5308 7.16L51.7138 7.6255C51.7202 6.91617 51.5618 6.39367 51.2388 6.058C50.9158 5.72233 50.3712 5.5545 49.6048 5.5545C49.1425 5.5545 48.696 5.66217 48.2653 5.8775C47.8347 6.09283 47.5338 6.46333 47.3628 6.989L45.2728 6.3335C45.5262 5.46583 46.0075 4.76917 46.7168 4.2435C47.4325 3.71783 48.3952 3.455 49.6048 3.455C50.5168 3.455 51.318 3.60383 52.0083 3.9015C52.705 4.19917 53.2212 4.68683 53.5568 5.3645C53.7405 5.7255 53.8513 6.096 53.8893 6.476C53.9273 6.84967 53.9463 7.25817 53.9463 7.7015V14H51.9418V11.777L52.2743 12.138C51.812 12.879 51.2705 13.4237 50.6498 13.772C50.0355 14.114 49.266 14.285 48.3413 14.285ZM48.7973 12.461C49.3167 12.461 49.76 12.3692 50.1273 12.1855C50.4947 12.0018 50.786 11.777 51.0013 11.511C51.223 11.245 51.3718 10.9948 51.4478 10.7605C51.5682 10.4692 51.6347 10.1367 51.6473 9.763C51.6663 9.383 51.6758 9.07583 51.6758 8.8415L52.3788 9.0505C51.6885 9.15817 51.0963 9.25317 50.6023 9.3355C50.1083 9.41783 49.684 9.497 49.3293 9.573C48.9747 9.64267 48.6612 9.72183 48.3888 9.8105C48.1228 9.9055 47.898 10.0163 47.7143 10.143C47.5307 10.2697 47.3882 10.4153 47.2868 10.58C47.1918 10.7447 47.1443 10.9378 47.1443 11.1595C47.1443 11.4128 47.2077 11.6377 47.3343 11.834C47.461 12.024 47.6447 12.176 47.8853 12.29C48.1323 12.404 48.4363 12.461 48.7973 12.461ZM57.0034 18.56L58.9794 13.1355L59.0174 14.7315L54.5429 3.74H56.9274L60.1004 11.872H59.4924L62.5799 3.74H64.8694L59.1504 18.56H57.0034ZM70.1807 14.285C69.123 14.285 68.2205 14.0507 67.4732 13.582C66.7258 13.107 66.1527 12.461 65.7537 11.644C65.361 10.827 65.1615 9.90233 65.1552 8.87C65.1615 7.81867 65.3673 6.88767 65.7727 6.077C66.1843 5.26 66.767 4.62033 67.5207 4.158C68.2743 3.68933 69.1705 3.455 70.2092 3.455C71.3745 3.455 72.3593 3.7495 73.1637 4.3385C73.9743 4.92117 74.5032 5.71917 74.7502 6.7325L72.4702 7.35C72.2928 6.799 71.9983 6.3715 71.5867 6.0675C71.175 5.75717 70.7063 5.602 70.1807 5.602C69.5853 5.602 69.0945 5.7445 68.7082 6.0295C68.3218 6.30817 68.0368 6.6945 67.8532 7.1885C67.6695 7.6825 67.5777 8.243 67.5777 8.87C67.5777 9.84533 67.7962 10.6338 68.2332 11.2355C68.6702 11.8372 69.3193 12.138 70.1807 12.138C70.7887 12.138 71.2668 11.9987 71.6152 11.72C71.9698 11.4413 72.2358 11.0392 72.4132 10.5135L74.7502 11.036C74.4335 12.081 73.8793 12.8853 73.0877 13.449C72.296 14.0063 71.327 14.285 70.1807 14.285ZM76.3755 2.182V0.0824997H78.665V2.182H76.3755ZM76.3755 14V3.74H78.665V14H76.3755ZM87.3342 14C86.6566 14.1267 85.9916 14.1805 85.3392 14.1615C84.6932 14.1488 84.1137 14.0317 83.6007 13.81C83.0877 13.582 82.6982 13.2242 82.4322 12.7365C82.1979 12.2932 82.0744 11.8403 82.0617 11.378C82.0491 10.9157 82.0427 10.3932 82.0427 9.8105V0.889999H84.3227V9.6775C84.3227 10.0892 84.3259 10.4502 84.3322 10.7605C84.3449 11.0708 84.4114 11.3242 84.5317 11.5205C84.7597 11.9005 85.1239 12.1127 85.6242 12.157C86.1246 12.2013 86.6946 12.176 87.3342 12.081V14ZM80.1807 5.5355V3.74H87.3342V5.5355H80.1807ZM90.4211 18.56L92.3971 13.1355L92.4351 14.7315L87.9606 3.74H90.3451L93.5181 11.872H92.9101L95.9976 3.74H98.2871L92.5681 18.56H90.4211Z" fill="#F09235"/>
</svg>
